<svg width="368" height="808" viewBox="0 0 368 808" fill="none" xmlns="http://www.w3.org/2000/svg">
<g clip-path="url(#clip0_193_35)" filter="url(#filter0_d_193_35)">
<rect width="360" height="800" transform="translate(4)" fill="#FA9884"/>
<rect x="331.786" y="-87" width="247" height="313" transform="rotate(42.0857 331.786 -87)" fill="#FFE5CA"/>
<rect x="-113.467" y="44.9731" width="247" height="356.269" transform="rotate(-29.7436 -113.467 44.9731)" fill="#FFF3E2"/>
<path d="M25.26 116.24C24.14 116.24 23.0667 116.093 22.04 115.8C21.0133 115.493 20.1867 115.1 19.56 114.62L20.66 112.18C21.26 112.607 21.9667 112.96 22.78 113.24C23.6067 113.507 24.44 113.64 25.28 113.64C25.92 113.64 26.4333 113.58 26.82 113.46C27.22 113.327 27.5133 113.147 27.7 112.92C27.8867 112.693 27.98 112.433 27.98 112.14C27.98 111.767 27.8333 111.473 27.54 111.26C27.2467 111.033 26.86 110.853 26.38 110.72C25.9 110.573 25.3667 110.44 24.78 110.32C24.2067 110.187 23.6267 110.027 23.04 109.84C22.4667 109.653 21.94 109.413 21.46 109.12C20.98 108.827 20.5867 108.44 20.28 107.96C19.9867 107.48 19.84 106.867 19.84 106.12C19.84 105.32 20.0533 104.593 20.48 103.94C20.92 103.273 21.5733 102.747 22.44 102.36C23.32 101.96 24.42 101.76 25.74 101.76C26.62 101.76 27.4867 101.867 28.34 102.08C29.1933 102.28 29.9467 102.587 30.6 103L29.6 105.46C28.9467 105.087 28.2933 104.813 27.64 104.64C26.9867 104.453 26.3467 104.36 25.72 104.36C25.0933 104.36 24.58 104.433 24.18 104.58C23.78 104.727 23.4933 104.92 23.32 105.16C23.1467 105.387 23.06 105.653 23.06 105.96C23.06 106.32 23.2067 106.613 23.5 106.84C23.7933 107.053 24.18 107.227 24.66 107.36C25.14 107.493 25.6667 107.627 26.24 107.76C26.8267 107.893 27.4067 108.047 27.98 108.22C28.5667 108.393 29.1 108.627 29.58 108.92C30.06 109.213 30.4467 109.6 30.74 110.08C31.0467 110.56 31.2 111.167 31.2 111.9C31.2 112.687 30.98 113.407 30.54 114.06C30.1 114.713 29.44 115.24 28.56 115.64C27.6933 116.04 26.5933 116.24 25.26 116.24ZM38.5339 116.16C37.3072 116.16 36.2272 115.92 35.2939 115.44C34.3739 114.96 33.6606 114.307 33.1539 113.48C32.6472 112.64 32.3939 111.687 32.3939 110.62C32.3939 109.54 32.6406 108.587 33.1339 107.76C33.6406 106.92 34.3272 106.267 35.1939 105.8C36.0606 105.32 37.0406 105.08 38.1339 105.08C39.1872 105.08 40.1339 105.307 40.9739 105.76C41.8272 106.2 42.5006 106.84 42.9939 107.68C43.4872 108.507 43.7339 109.5 43.7339 110.66C43.7339 110.78 43.7272 110.92 43.7139 111.08C43.7006 111.227 43.6872 111.367 43.6739 111.5H34.9339V109.68H42.0339L40.8339 110.22C40.8339 109.66 40.7206 109.173 40.4939 108.76C40.2672 108.347 39.9539 108.027 39.5539 107.8C39.1539 107.56 38.6872 107.44 38.1539 107.44C37.6206 107.44 37.1472 107.56 36.7339 107.8C36.3339 108.027 36.0206 108.353 35.7939 108.78C35.5672 109.193 35.4539 109.687 35.4539 110.26V110.74C35.4539 111.327 35.5806 111.847 35.8339 112.3C36.1006 112.74 36.4672 113.08 36.9339 113.32C37.4139 113.547 37.9739 113.66 38.6139 113.66C39.1872 113.66 39.6872 113.573 40.1139 113.4C40.5539 113.227 40.9539 112.967 41.3139 112.62L42.9739 114.42C42.4806 114.98 41.8606 115.413 41.1139 115.72C40.3672 116.013 39.5072 116.16 38.5339 116.16ZM45.8111 116V101.16H48.9311V116H45.8111ZM58.4267 116V113.9L58.2267 113.44V109.68C58.2267 109.013 58.0201 108.493 57.6067 108.12C57.2067 107.747 56.5867 107.56 55.7467 107.56C55.1734 107.56 54.6067 107.653 54.0467 107.84C53.5001 108.013 53.0334 108.253 52.6467 108.56L51.5267 106.38C52.1134 105.967 52.8201 105.647 53.6467 105.42C54.4734 105.193 55.3134 105.08 56.1667 105.08C57.8067 105.08 59.0801 105.467 59.9867 106.24C60.8934 107.013 61.3467 108.22 61.3467 109.86V116H58.4267ZM55.1467 116.16C54.3067 116.16 53.5867 116.02 52.9867 115.74C52.3867 115.447 51.9267 115.053 51.6067 114.56C51.2867 114.067 51.1267 113.513 51.1267 112.9C51.1267 112.26 51.2801 111.7 51.5867 111.22C51.9067 110.74 52.4067 110.367 53.0867 110.1C53.7667 109.82 54.6534 109.68 55.7467 109.68H58.6067V111.5H56.0867C55.3534 111.5 54.8467 111.62 54.5667 111.86C54.3001 112.1 54.1667 112.4 54.1667 112.76C54.1667 113.16 54.3201 113.48 54.6267 113.72C54.9467 113.947 55.3801 114.06 55.9267 114.06C56.4467 114.06 56.9134 113.94 57.3267 113.7C57.7401 113.447 58.0401 113.08 58.2267 112.6L58.7067 114.04C58.4801 114.733 58.0667 115.26 57.4667 115.62C56.8667 115.98 56.0934 116.16 55.1467 116.16ZM77.9505 105.08C78.8038 105.08 79.5571 105.253 80.2105 105.6C80.8771 105.933 81.3971 106.453 81.7705 107.16C82.1571 107.853 82.3505 108.747 82.3505 109.84V116H79.2305V110.32C79.2305 109.453 79.0505 108.813 78.6905 108.4C78.3305 107.987 77.8238 107.78 77.1705 107.78C76.7171 107.78 76.3105 107.887 75.9505 108.1C75.5905 108.3 75.3105 108.607 75.1105 109.02C74.9105 109.433 74.8105 109.96 74.8105 110.6V116H71.6905V110.32C71.6905 109.453 71.5105 108.813 71.1505 108.4C70.8038 107.987 70.3038 107.78 69.6505 107.78C69.1971 107.78 68.7905 107.887 68.4305 108.1C68.0705 108.3 67.7905 108.607 67.5905 109.02C67.3905 109.433 67.2905 109.96 67.2905 110.6V116H64.1705V105.24H67.1505V108.18L66.5905 107.32C66.9638 106.587 67.4905 106.033 68.1705 105.66C68.8638 105.273 69.6505 105.08 70.5305 105.08C71.5171 105.08 72.3771 105.333 73.1105 105.84C73.8571 106.333 74.3505 107.093 74.5905 108.12L73.4905 107.82C73.8505 106.98 74.4238 106.313 75.2105 105.82C76.0105 105.327 76.9238 105.08 77.9505 105.08ZM91.747 116V113.9L91.547 113.44V109.68C91.547 109.013 91.3404 108.493 90.927 108.12C90.527 107.747 89.907 107.56 89.067 107.56C88.4937 107.56 87.927 107.653 87.367 107.84C86.8204 108.013 86.3537 108.253 85.967 108.56L84.847 106.38C85.4337 105.967 86.1404 105.647 86.967 105.42C87.7937 105.193 88.6337 105.08 89.487 105.08C91.127 105.08 92.4004 105.467 93.307 106.24C94.2137 107.013 94.667 108.22 94.667 109.86V116H91.747ZM88.467 116.16C87.627 116.16 86.907 116.02 86.307 115.74C85.707 115.447 85.247 115.053 84.927 114.56C84.607 114.067 84.447 113.513 84.447 112.9C84.447 112.26 84.6004 111.7 84.907 111.22C85.227 110.74 85.727 110.367 86.407 110.1C87.087 109.82 87.9737 109.68 89.067 109.68H91.927V111.5H89.407C88.6737 111.5 88.167 111.62 87.887 111.86C87.6204 112.1 87.487 112.4 87.487 112.76C87.487 113.16 87.6404 113.48 87.947 113.72C88.267 113.947 88.7004 114.06 89.247 114.06C89.767 114.06 90.2337 113.94 90.647 113.7C91.0604 113.447 91.3604 113.08 91.547 112.6L92.027 114.04C91.8004 114.733 91.387 115.26 90.787 115.62C90.187 115.98 89.4137 116.16 88.467 116.16ZM101.891 116.16C100.624 116.16 99.6374 115.84 98.9308 115.2C98.2241 114.547 97.8708 113.58 97.8708 112.3V102.86H100.991V112.26C100.991 112.713 101.111 113.067 101.351 113.32C101.591 113.56 101.917 113.68 102.331 113.68C102.824 113.68 103.244 113.547 103.591 113.28L104.431 115.48C104.111 115.707 103.724 115.88 103.271 116C102.831 116.107 102.371 116.16 101.891 116.16ZM96.2108 107.88V105.48H103.671V107.88H96.2108ZM112.066 116V102H118.426C119.946 102 121.286 102.293 122.446 102.88C123.606 103.453 124.513 104.26 125.166 105.3C125.82 106.34 126.146 107.573 126.146 109C126.146 110.413 125.82 111.647 125.166 112.7C124.513 113.74 123.606 114.553 122.446 115.14C121.286 115.713 119.946 116 118.426 116H112.066ZM115.306 113.34H118.266C119.2 113.34 120.006 113.167 120.686 112.82C121.38 112.46 121.913 111.953 122.286 111.3C122.673 110.647 122.866 109.88 122.866 109C122.866 108.107 122.673 107.34 122.286 106.7C121.913 106.047 121.38 105.547 120.686 105.2C120.006 104.84 119.2 104.66 118.266 104.66H115.306V113.34ZM134.97 116V113.9L134.77 113.44V109.68C134.77 109.013 134.563 108.493 134.15 108.12C133.75 107.747 133.13 107.56 132.29 107.56C131.716 107.56 131.15 107.653 130.59 107.84C130.043 108.013 129.576 108.253 129.19 108.56L128.07 106.38C128.656 105.967 129.363 105.647 130.19 105.42C131.016 105.193 131.856 105.08 132.71 105.08C134.35 105.08 135.623 105.467 136.53 106.24C137.436 107.013 137.89 108.22 137.89 109.86V116H134.97ZM131.69 116.16C130.85 116.16 130.13 116.02 129.53 115.74C128.93 115.447 128.47 115.053 128.15 114.56C127.83 114.067 127.67 113.513 127.67 112.9C127.67 112.26 127.823 111.7 128.13 111.22C128.45 110.74 128.95 110.367 129.63 110.1C130.31 109.82 131.196 109.68 132.29 109.68H135.15V111.5H132.63C131.896 111.5 131.39 111.62 131.11 111.86C130.843 112.1 130.71 112.4 130.71 112.76C130.71 113.16 130.863 113.48 131.17 113.72C131.49 113.947 131.923 114.06 132.47 114.06C132.99 114.06 133.456 113.94 133.87 113.7C134.283 113.447 134.583 113.08 134.77 112.6L135.25 114.04C135.023 114.733 134.61 115.26 134.01 115.62C133.41 115.98 132.636 116.16 131.69 116.16ZM145.113 116.16C143.847 116.16 142.86 115.84 142.153 115.2C141.447 114.547 141.093 113.58 141.093 112.3V102.86H144.213V112.26C144.213 112.713 144.333 113.067 144.573 113.32C144.813 113.56 145.14 113.68 145.553 113.68C146.047 113.68 146.467 113.547 146.813 113.28L147.653 115.48C147.333 115.707 146.947 115.88 146.493 116C146.053 116.107 145.593 116.16 145.113 116.16ZM139.433 107.88V105.48H146.893V107.88H139.433ZM156.005 116V113.9L155.805 113.44V109.68C155.805 109.013 155.598 108.493 155.185 108.12C154.785 107.747 154.165 107.56 153.325 107.56C152.752 107.56 152.185 107.653 151.625 107.84C151.078 108.013 150.612 108.253 150.225 108.56L149.105 106.38C149.692 105.967 150.398 105.647 151.225 105.42C152.052 105.193 152.892 105.08 153.745 105.08C155.385 105.08 156.658 105.467 157.565 106.24C158.472 107.013 158.925 108.22 158.925 109.86V116H156.005ZM152.725 116.16C151.885 116.16 151.165 116.02 150.565 115.74C149.965 115.447 149.505 115.053 149.185 114.56C148.865 114.067 148.705 113.513 148.705 112.9C148.705 112.26 148.858 111.7 149.165 111.22C149.485 110.74 149.985 110.367 150.665 110.1C151.345 109.82 152.232 109.68 153.325 109.68H156.185V111.5H153.665C152.932 111.5 152.425 111.62 152.145 111.86C151.878 112.1 151.745 112.4 151.745 112.76C151.745 113.16 151.898 113.48 152.205 113.72C152.525 113.947 152.958 114.06 153.505 114.06C154.025 114.06 154.492 113.94 154.905 113.7C155.318 113.447 155.618 113.08 155.805 112.6L156.285 114.04C156.058 114.733 155.645 115.26 155.045 115.62C154.445 115.98 153.672 116.16 152.725 116.16ZM168.289 105.08C169.142 105.08 169.902 105.253 170.569 105.6C171.249 105.933 171.782 106.453 172.169 107.16C172.555 107.853 172.749 108.747 172.749 109.84V116H169.629V110.32C169.629 109.453 169.435 108.813 169.049 108.4C168.675 107.987 168.142 107.78 167.449 107.78C166.955 107.78 166.509 107.887 166.109 108.1C165.722 108.3 165.415 108.613 165.189 109.04C164.975 109.467 164.869 110.013 164.869 110.68V116H161.749V105.24H164.729V108.22L164.169 107.32C164.555 106.6 165.109 106.047 165.829 105.66C166.549 105.273 167.369 105.08 168.289 105.08ZM180.715 120.04C179.702 120.04 178.722 119.913 177.775 119.66C176.842 119.42 176.062 119.053 175.435 118.56L176.675 116.32C177.128 116.693 177.702 116.987 178.395 117.2C179.102 117.427 179.795 117.54 180.475 117.54C181.582 117.54 182.382 117.293 182.875 116.8C183.382 116.307 183.635 115.573 183.635 114.6V112.98L183.835 110.28L183.795 107.56V105.24H186.755V114.2C186.755 116.2 186.235 117.673 185.195 118.62C184.155 119.567 182.662 120.04 180.715 120.04ZM180.235 115.48C179.235 115.48 178.328 115.267 177.515 114.84C176.715 114.4 176.068 113.793 175.575 113.02C175.095 112.233 174.855 111.32 174.855 110.28C174.855 109.227 175.095 108.313 175.575 107.54C176.068 106.753 176.715 106.147 177.515 105.72C178.328 105.293 179.235 105.08 180.235 105.08C181.142 105.08 181.942 105.267 182.635 105.64C183.328 106 183.868 106.567 184.255 107.34C184.642 108.1 184.835 109.08 184.835 110.28C184.835 111.467 184.642 112.447 184.255 113.22C183.868 113.98 183.328 114.547 182.635 114.92C181.942 115.293 181.142 115.48 180.235 115.48ZM180.855 112.92C181.402 112.92 181.888 112.813 182.315 112.6C182.742 112.373 183.075 112.06 183.315 111.66C183.555 111.26 183.675 110.8 183.675 110.28C183.675 109.747 183.555 109.287 183.315 108.9C183.075 108.5 182.742 108.193 182.315 107.98C181.888 107.753 181.402 107.64 180.855 107.64C180.308 107.64 179.822 107.753 179.395 107.98C178.968 108.193 178.628 108.5 178.375 108.9C178.135 109.287 178.015 109.747 178.015 110.28C178.015 110.8 178.135 111.26 178.375 111.66C178.628 112.06 178.968 112.373 179.395 112.6C179.822 112.813 180.308 112.92 180.855 112.92ZM189.879 111.14L189.259 102H192.979L192.359 111.14H189.879ZM191.119 116.16C190.559 116.16 190.099 115.98 189.739 115.62C189.379 115.26 189.199 114.833 189.199 114.34C189.199 113.833 189.379 113.413 189.739 113.08C190.099 112.733 190.559 112.56 191.119 112.56C191.692 112.56 192.152 112.733 192.499 113.08C192.859 113.413 193.039 113.833 193.039 114.34C193.039 114.833 192.859 115.26 192.499 115.62C192.152 115.98 191.692 116.16 191.119 116.16Z" fill="#E74646"/>
<path d="M20.71 142V131.5H24.985C26.105 131.5 27.085 131.725 27.925 132.175C28.775 132.615 29.435 133.23 29.905 134.02C30.375 134.81 30.61 135.72 30.61 136.75C30.61 137.78 30.375 138.69 29.905 139.48C29.435 140.27 28.775 140.89 27.925 141.34C27.085 141.78 26.105 142 24.985 142H20.71ZM21.82 141.04H24.925C25.855 141.04 26.66 140.86 27.34 140.5C28.03 140.13 28.565 139.625 28.945 138.985C29.325 138.335 29.515 137.59 29.515 136.75C29.515 135.9 29.325 135.155 28.945 134.515C28.565 133.875 28.03 133.375 27.34 133.015C26.66 132.645 25.855 132.46 24.925 132.46H21.82V141.04ZM32.8776 142V134.125H33.9426V142H32.8776ZM33.4176 132.385C33.1976 132.385 33.0126 132.31 32.8626 132.16C32.7126 132.01 32.6376 131.83 32.6376 131.62C32.6376 131.41 32.7126 131.235 32.8626 131.095C33.0126 130.945 33.1976 130.87 33.4176 130.87C33.6376 130.87 33.8226 130.94 33.9726 131.08C34.1226 131.22 34.1976 131.395 34.1976 131.605C34.1976 131.825 34.1226 132.01 33.9726 132.16C33.8326 132.31 33.6476 132.385 33.4176 132.385ZM37.0859 142V133.135C37.0859 132.435 37.2909 131.87 37.7009 131.44C38.1109 131.01 38.7009 130.795 39.4709 130.795C39.7709 130.795 40.0609 130.835 40.3409 130.915C40.6209 130.995 40.8559 131.12 41.0459 131.29L40.6859 132.085C40.5359 131.955 40.3609 131.86 40.1609 131.8C39.9609 131.73 39.7459 131.695 39.5159 131.695C39.0659 131.695 38.7209 131.82 38.4809 132.07C38.2409 132.32 38.1209 132.69 38.1209 133.18V134.38L38.1509 134.875V142H37.0859ZM35.6759 135.01V134.125H40.5509V135.01H35.6759ZM46.7774 142V140.26L46.7324 139.975V137.065C46.7324 136.395 46.5424 135.88 46.1624 135.52C45.7924 135.16 45.2374 134.98 44.4974 134.98C43.9874 134.98 43.5024 135.065 43.0424 135.235C42.5824 135.405 42.1924 135.63 41.8724 135.91L41.3924 135.115C41.7924 134.775 42.2724 134.515 42.8324 134.335C43.3924 134.145 43.9824 134.05 44.6024 134.05C45.6224 134.05 46.4074 134.305 46.9574 134.815C47.5174 135.315 47.7974 136.08 47.7974 137.11V142H46.7774ZM44.0624 142.075C43.4724 142.075 42.9574 141.98 42.5174 141.79C42.0874 141.59 41.7574 141.32 41.5274 140.98C41.2974 140.63 41.1824 140.23 41.1824 139.78C41.1824 139.37 41.2774 139 41.4674 138.67C41.6674 138.33 41.9874 138.06 42.4274 137.86C42.8774 137.65 43.4774 137.545 44.2274 137.545H46.9424V138.34H44.2574C43.4974 138.34 42.9674 138.475 42.6674 138.745C42.3774 139.015 42.2324 139.35 42.2324 139.75C42.2324 140.2 42.4074 140.56 42.7574 140.83C43.1074 141.1 43.5974 141.235 44.2274 141.235C44.8274 141.235 45.3424 141.1 45.7724 140.83C46.2124 140.55 46.5324 140.15 46.7324 139.63L46.9724 140.365C46.7724 140.885 46.4224 141.3 45.9224 141.61C45.4324 141.92 44.8124 142.075 44.0624 142.075ZM54.8409 142V131.5H59.1159C60.2359 131.5 61.2159 131.725 62.0559 132.175C62.9059 132.615 63.5659 133.23 64.0359 134.02C64.5059 134.81 64.7409 135.72 64.7409 136.75C64.7409 137.78 64.5059 138.69 64.0359 139.48C63.5659 140.27 62.9059 140.89 62.0559 141.34C61.2159 141.78 60.2359 142 59.1159 142H54.8409ZM55.9509 141.04H59.0559C59.9859 141.04 60.7909 140.86 61.4709 140.5C62.1609 140.13 62.6959 139.625 63.0759 138.985C63.4559 138.335 63.6459 137.59 63.6459 136.75C63.6459 135.9 63.4559 135.155 63.0759 134.515C62.6959 133.875 62.1609 133.375 61.4709 133.015C60.7909 132.645 59.9859 132.46 59.0559 132.46H55.9509V141.04ZM67.0084 142V130.87H68.0734V142H67.0084ZM71.0968 144.985C70.7268 144.985 70.3718 144.925 70.0318 144.805C69.7018 144.685 69.4168 144.505 69.1768 144.265L69.6718 143.47C69.8718 143.66 70.0868 143.805 70.3168 143.905C70.5568 144.015 70.8218 144.07 71.1118 144.07C71.4618 144.07 71.7618 143.97 72.0118 143.77C72.2718 143.58 72.5168 143.24 72.7468 142.75L73.2568 141.595L73.3768 141.43L76.6168 134.125H77.6668L73.7218 142.945C73.5018 143.455 73.2568 143.86 72.9868 144.16C72.7268 144.46 72.4418 144.67 72.1318 144.79C71.8218 144.92 71.4768 144.985 71.0968 144.985ZM73.1968 142.225L69.5668 134.125H70.6768L73.8868 141.355L73.1968 142.225ZM83.8673 142V140.26L83.8223 139.975V137.065C83.8223 136.395 83.6323 135.88 83.2523 135.52C82.8823 135.16 82.3273 134.98 81.5873 134.98C81.0773 134.98 80.5923 135.065 80.1323 135.235C79.6723 135.405 79.2823 135.63 78.9623 135.91L78.4823 135.115C78.8823 134.775 79.3623 134.515 79.9223 134.335C80.4823 134.145 81.0723 134.05 81.6923 134.05C82.7123 134.05 83.4973 134.305 84.0473 134.815C84.6073 135.315 84.8873 136.08 84.8873 137.11V142H83.8673ZM81.1523 142.075C80.5623 142.075 80.0473 141.98 79.6073 141.79C79.1773 141.59 78.8473 141.32 78.6173 140.98C78.3873 140.63 78.2723 140.23 78.2723 139.78C78.2723 139.37 78.3673 139 78.5573 138.67C78.7573 138.33 79.0773 138.06 79.5173 137.86C79.9673 137.65 80.5673 137.545 81.3173 137.545H84.0323V138.34H81.3473C80.5873 138.34 80.0573 138.475 79.7573 138.745C79.4673 139.015 79.3223 139.35 79.3223 139.75C79.3223 140.2 79.4973 140.56 79.8473 140.83C80.1973 141.1 80.6873 141.235 81.3173 141.235C81.9173 141.235 82.4323 141.1 82.8623 140.83C83.3023 140.55 83.6223 140.15 83.8223 139.63L84.0623 140.365C83.8623 140.885 83.5123 141.3 83.0123 141.61C82.5223 141.92 81.9023 142.075 81.1523 142.075ZM91.0349 142.075C90.3649 142.075 89.7799 141.95 89.2799 141.7C88.7799 141.45 88.3899 141.075 88.1099 140.575C87.8399 140.075 87.7049 139.45 87.7049 138.7V134.125H88.7699V138.58C88.7699 139.42 88.9749 140.055 89.3849 140.485C89.8049 140.905 90.3899 141.115 91.1399 141.115C91.6899 141.115 92.1649 141.005 92.5649 140.785C92.9749 140.555 93.2849 140.225 93.4949 139.795C93.7149 139.365 93.8249 138.85 93.8249 138.25V134.125H94.8899V142H93.8699V139.84L94.0349 140.23C93.7849 140.81 93.3949 141.265 92.8649 141.595C92.3449 141.915 91.7349 142.075 91.0349 142.075ZM97.858 142V130.87H98.923V142H97.858ZM113.717 131.5H114.812V142H113.717V131.5ZM107.147 142H106.037V131.5H107.147V142ZM113.822 137.155H107.027V136.18H113.822V137.155ZM122.949 142V140.26L122.904 139.975V137.065C122.904 136.395 122.714 135.88 122.334 135.52C121.964 135.16 121.409 134.98 120.669 134.98C120.159 134.98 119.674 135.065 119.214 135.235C118.754 135.405 118.364 135.63 118.044 135.91L117.564 135.115C117.964 134.775 118.444 134.515 119.004 134.335C119.564 134.145 120.154 134.05 120.774 134.05C121.794 134.05 122.579 134.305 123.129 134.815C123.689 135.315 123.969 136.08 123.969 137.11V142H122.949ZM120.234 142.075C119.644 142.075 119.129 141.98 118.689 141.79C118.259 141.59 117.929 141.32 117.699 140.98C117.469 140.63 117.354 140.23 117.354 139.78C117.354 139.37 117.449 139 117.639 138.67C117.839 138.33 118.159 138.06 118.599 137.86C119.049 137.65 119.649 137.545 120.399 137.545H123.114V138.34H120.429C119.669 138.34 119.139 138.475 118.839 138.745C118.549 139.015 118.404 139.35 118.404 139.75C118.404 140.2 118.579 140.56 118.929 140.83C119.279 141.1 119.769 141.235 120.399 141.235C120.999 141.235 121.514 141.1 121.944 140.83C122.384 140.55 122.704 140.15 122.904 139.63L123.144 140.365C122.944 140.885 122.594 141.3 122.094 141.61C121.604 141.92 120.984 142.075 120.234 142.075ZM129.997 142.075C129.247 142.075 128.572 141.905 127.972 141.565C127.382 141.225 126.917 140.755 126.577 140.155C126.237 139.555 126.067 138.855 126.067 138.055C126.067 137.265 126.237 136.57 126.577 135.97C126.917 135.36 127.382 134.89 127.972 134.56C128.572 134.22 129.247 134.05 129.997 134.05C130.697 134.05 131.317 134.205 131.857 134.515C132.407 134.825 132.842 135.28 133.162 135.88C133.482 136.47 133.642 137.195 133.642 138.055C133.642 138.915 133.477 139.645 133.147 140.245C132.827 140.835 132.392 141.29 131.842 141.61C131.302 141.92 130.687 142.075 129.997 142.075ZM130.072 141.13C130.632 141.13 131.132 141.005 131.572 140.755C132.022 140.495 132.372 140.135 132.622 139.675C132.882 139.205 133.012 138.665 133.012 138.055C133.012 137.445 132.882 136.91 132.622 136.45C132.372 135.99 132.022 135.63 131.572 135.37C131.132 135.11 130.632 134.98 130.072 134.98C129.522 134.98 129.027 135.11 128.587 135.37C128.147 135.63 127.797 135.99 127.537 136.45C127.277 136.91 127.147 137.445 127.147 138.055C127.147 138.665 127.277 139.205 127.537 139.675C127.797 140.135 128.147 140.495 128.587 140.755C129.027 141.005 129.522 141.13 130.072 141.13ZM132.997 144.91V139.66L133.147 138.07L133.042 136.495V134.125H134.062V144.91H132.997Z" fill="#E74646"/>
<g filter="url(#filter1_d_193_35)">
<path d="M24.085 166.09C23.155 166.09 22.37 165.885 21.73 165.475C21.09 165.055 20.605 164.455 20.275 163.675C19.945 162.885 19.78 161.94 19.78 160.84C19.78 159.65 19.98 158.655 20.38 157.855C20.79 157.045 21.355 156.435 22.075 156.025C22.795 155.615 23.63 155.41 24.58 155.41C25.05 155.41 25.5 155.455 25.93 155.545C26.36 155.635 26.74 155.78 27.07 155.98L26.635 156.85C26.365 156.67 26.055 156.545 25.705 156.475C25.355 156.395 24.985 156.355 24.595 156.355C23.465 156.355 22.56 156.715 21.88 157.435C21.21 158.155 20.875 159.23 20.875 160.66C20.875 160.88 20.885 161.155 20.905 161.485C20.935 161.805 20.995 162.125 21.085 162.445L20.71 162.16C20.82 161.64 21.035 161.2 21.355 160.84C21.675 160.47 22.075 160.19 22.555 160C23.035 159.81 23.56 159.715 24.13 159.715C24.83 159.715 25.445 159.845 25.975 160.105C26.505 160.365 26.92 160.73 27.22 161.2C27.52 161.67 27.67 162.225 27.67 162.865C27.67 163.515 27.515 164.085 27.205 164.575C26.895 165.055 26.465 165.43 25.915 165.7C25.375 165.96 24.765 166.09 24.085 166.09ZM24.04 165.175C24.54 165.175 24.98 165.085 25.36 164.905C25.75 164.715 26.055 164.45 26.275 164.11C26.495 163.76 26.605 163.355 26.605 162.895C26.605 162.205 26.365 161.655 25.885 161.245C25.415 160.835 24.775 160.63 23.965 160.63C23.425 160.63 22.955 160.73 22.555 160.93C22.155 161.13 21.84 161.405 21.61 161.755C21.38 162.095 21.265 162.485 21.265 162.925C21.265 163.305 21.37 163.67 21.58 164.02C21.79 164.36 22.1 164.64 22.51 164.86C22.93 165.07 23.44 165.175 24.04 165.175ZM32.0556 166.09C31.2956 166.09 30.5756 165.97 29.8956 165.73C29.2256 165.48 28.6856 165.15 28.2756 164.74L28.8006 163.885C29.1406 164.235 29.5956 164.525 30.1656 164.755C30.7456 164.985 31.3756 165.1 32.0556 165.1C32.9256 165.1 33.5906 164.91 34.0506 164.53C34.5206 164.15 34.7556 163.64 34.7556 163C34.7556 162.36 34.5256 161.85 34.0656 161.47C33.6156 161.09 32.9006 160.9 31.9206 160.9H31.1706V160.105L34.4106 156.04L34.5606 156.46H28.7106V155.5H35.4606V156.265L32.2206 160.33L31.6956 159.985H32.1006C33.3606 159.985 34.3006 160.265 34.9206 160.825C35.5506 161.385 35.8656 162.105 35.8656 162.985C35.8656 163.575 35.7256 164.105 35.4456 164.575C35.1656 165.045 34.7406 165.415 34.1706 165.685C33.6106 165.955 32.9056 166.09 32.0556 166.09ZM39.042 166L43.572 155.98L43.902 156.46H37.407L37.962 155.935V158.425H36.897V155.5H44.607V156.265L40.212 166H39.042ZM48.0065 166V155.95L48.4865 156.46H45.5315V155.5H49.0865V166H48.0065ZM55.7814 166.09C54.9714 166.09 54.2514 165.88 53.6214 165.46C52.9914 165.03 52.4964 164.42 52.1364 163.63C51.7764 162.83 51.5964 161.87 51.5964 160.75C51.5964 159.63 51.7764 158.675 52.1364 157.885C52.4964 157.085 52.9914 156.475 53.6214 156.055C54.2514 155.625 54.9714 155.41 55.7814 155.41C56.5914 155.41 57.3114 155.625 57.9414 156.055C58.5714 156.475 59.0664 157.085 59.4264 157.885C59.7964 158.675 59.9814 159.63 59.9814 160.75C59.9814 161.87 59.7964 162.83 59.4264 163.63C59.0664 164.42 58.5714 165.03 57.9414 165.46C57.3114 165.88 56.5914 166.09 55.7814 166.09ZM55.7814 165.1C56.4014 165.1 56.9414 164.935 57.4014 164.605C57.8614 164.265 58.2214 163.775 58.4814 163.135C58.7414 162.485 58.8714 161.69 58.8714 160.75C58.8714 159.81 58.7414 159.02 58.4814 158.38C58.2214 157.73 57.8614 157.24 57.4014 156.91C56.9414 156.57 56.4014 156.4 55.7814 156.4C55.1814 156.4 54.6464 156.57 54.1764 156.91C53.7064 157.24 53.3414 157.73 53.0814 158.38C52.8214 159.02 52.6914 159.81 52.6914 160.75C52.6914 161.69 52.8214 162.485 53.0814 163.135C53.3414 163.775 53.7064 164.265 54.1764 164.605C54.6464 164.935 55.1814 165.1 55.7814 165.1ZM64.798 155.41C65.728 155.41 66.513 155.62 67.153 156.04C67.793 156.45 68.278 157.045 68.608 157.825C68.938 158.605 69.103 159.55 69.103 160.66C69.103 161.84 68.898 162.835 68.488 163.645C68.088 164.455 67.528 165.065 66.808 165.475C66.088 165.885 65.253 166.09 64.303 166.09C63.833 166.09 63.383 166.045 62.953 165.955C62.533 165.865 62.153 165.72 61.813 165.52L62.248 164.65C62.518 164.83 62.828 164.96 63.178 165.04C63.538 165.11 63.908 165.145 64.288 165.145C65.418 165.145 66.318 164.785 66.988 164.065C67.668 163.345 68.008 162.27 68.008 160.84C68.008 160.61 67.993 160.335 67.963 160.015C67.943 159.695 67.888 159.375 67.798 159.055L68.173 159.34C68.073 159.86 67.858 160.305 67.528 160.675C67.208 161.035 66.808 161.31 66.328 161.5C65.858 161.69 65.333 161.785 64.753 161.785C64.063 161.785 63.448 161.655 62.908 161.395C62.378 161.135 61.963 160.77 61.663 160.3C61.363 159.83 61.213 159.275 61.213 158.635C61.213 157.975 61.368 157.405 61.678 156.925C61.988 156.445 62.413 156.075 62.953 155.815C63.503 155.545 64.118 155.41 64.798 155.41ZM64.843 156.325C64.343 156.325 63.898 156.42 63.508 156.61C63.128 156.79 62.828 157.05 62.608 157.39C62.388 157.73 62.278 158.135 62.278 158.605C62.278 159.295 62.513 159.845 62.983 160.255C63.463 160.665 64.108 160.87 64.918 160.87C65.458 160.87 65.928 160.77 66.328 160.57C66.738 160.37 67.053 160.095 67.273 159.745C67.503 159.395 67.618 159.005 67.618 158.575C67.618 158.185 67.513 157.82 67.303 157.48C67.093 157.14 66.783 156.865 66.373 156.655C65.963 156.435 65.453 156.325 64.843 156.325ZM74.8537 166.09C74.0437 166.09 73.3237 165.88 72.6937 165.46C72.0637 165.03 71.5687 164.42 71.2087 163.63C70.8487 162.83 70.6687 161.87 70.6687 160.75C70.6687 159.63 70.8487 158.675 71.2087 157.885C71.5687 157.085 72.0637 156.475 72.6937 156.055C73.3237 155.625 74.0437 155.41 74.8537 155.41C75.6637 155.41 76.3837 155.625 77.0137 156.055C77.6437 156.475 78.1387 157.085 78.4987 157.885C78.8687 158.675 79.0537 159.63 79.0537 160.75C79.0537 161.87 78.8687 162.83 78.4987 163.63C78.1387 164.42 77.6437 165.03 77.0137 165.46C76.3837 165.88 75.6637 166.09 74.8537 166.09ZM74.8537 165.1C75.4737 165.1 76.0137 164.935 76.4737 164.605C76.9337 164.265 77.2937 163.775 77.5537 163.135C77.8137 162.485 77.9437 161.69 77.9437 160.75C77.9437 159.81 77.8137 159.02 77.5537 158.38C77.2937 157.73 76.9337 157.24 76.4737 156.91C76.0137 156.57 75.4737 156.4 74.8537 156.4C74.2537 156.4 73.7187 156.57 73.2487 156.91C72.7787 157.24 72.4137 157.73 72.1537 158.38C71.8937 159.02 71.7637 159.81 71.7637 160.75C71.7637 161.69 71.8937 162.485 72.1537 163.135C72.4137 163.775 72.7787 164.265 73.2487 164.605C73.7187 164.935 74.2537 165.1 74.8537 165.1ZM82.4303 166V155.95L82.9103 156.46H79.9553V155.5H83.5103V166H82.4303ZM90.2052 166.09C89.3952 166.09 88.6752 165.88 88.0452 165.46C87.4152 165.03 86.9202 164.42 86.5602 163.63C86.2002 162.83 86.0202 161.87 86.0202 160.75C86.0202 159.63 86.2002 158.675 86.5602 157.885C86.9202 157.085 87.4152 156.475 88.0452 156.055C88.6752 155.625 89.3952 155.41 90.2052 155.41C91.0152 155.41 91.7352 155.625 92.3652 156.055C92.9952 156.475 93.4902 157.085 93.8502 157.885C94.2202 158.675 94.4052 159.63 94.4052 160.75C94.4052 161.87 94.2202 162.83 93.8502 163.63C93.4902 164.42 92.9952 165.03 92.3652 165.46C91.7352 165.88 91.0152 166.09 90.2052 166.09ZM90.2052 165.1C90.8252 165.1 91.3652 164.935 91.8252 164.605C92.2852 164.265 92.6452 163.775 92.9052 163.135C93.1652 162.485 93.2952 161.69 93.2952 160.75C93.2952 159.81 93.1652 159.02 92.9052 158.38C92.6452 157.73 92.2852 157.24 91.8252 156.91C91.3652 156.57 90.8252 156.4 90.2052 156.4C89.6052 156.4 89.0702 156.57 88.6002 156.91C88.1302 157.24 87.7652 157.73 87.5052 158.38C87.2452 159.02 87.1152 159.81 87.1152 160.75C87.1152 161.69 87.2452 162.485 87.5052 163.135C87.7652 163.775 88.1302 164.265 88.6002 164.605C89.0702 164.935 89.6052 165.1 90.2052 165.1ZM95.7569 166V165.235L100.122 160.96C100.522 160.57 100.822 160.23 101.022 159.94C101.222 159.64 101.357 159.36 101.427 159.1C101.497 158.84 101.532 158.595 101.532 158.365C101.532 157.755 101.322 157.275 100.902 156.925C100.492 156.575 99.8819 156.4 99.0719 156.4C98.4519 156.4 97.9019 156.495 97.4219 156.685C96.9519 156.875 96.5469 157.17 96.2069 157.57L95.4419 156.91C95.8519 156.43 96.3769 156.06 97.0169 155.8C97.6569 155.54 98.3719 155.41 99.1619 155.41C99.8719 155.41 100.487 155.525 101.007 155.755C101.527 155.975 101.927 156.3 102.207 156.73C102.497 157.16 102.642 157.665 102.642 158.245C102.642 158.585 102.592 158.92 102.492 159.25C102.402 159.58 102.232 159.93 101.982 160.3C101.742 160.66 101.387 161.07 100.917 161.53L96.9119 165.46L96.6119 165.04H103.122V166H95.7569ZM107.612 166.09C106.852 166.09 106.132 165.97 105.452 165.73C104.782 165.48 104.242 165.15 103.832 164.74L104.357 163.885C104.697 164.235 105.152 164.525 105.722 164.755C106.302 164.985 106.932 165.1 107.612 165.1C108.482 165.1 109.147 164.91 109.607 164.53C110.077 164.15 110.312 163.64 110.312 163C110.312 162.36 110.082 161.85 109.622 161.47C109.172 161.09 108.457 160.9 107.477 160.9H106.727V160.105L109.967 156.04L110.117 156.46H104.267V155.5H111.017V156.265L107.777 160.33L107.252 159.985H107.657C108.917 159.985 109.857 160.265 110.477 160.825C111.107 161.385 111.422 162.105 111.422 162.985C111.422 163.575 111.282 164.105 111.002 164.575C110.722 165.045 110.297 165.415 109.727 165.685C109.167 165.955 108.462 166.09 107.612 166.09ZM117.129 166.09C116.319 166.09 115.599 165.88 114.969 165.46C114.339 165.03 113.844 164.42 113.484 163.63C113.124 162.83 112.944 161.87 112.944 160.75C112.944 159.63 113.124 158.675 113.484 157.885C113.844 157.085 114.339 156.475 114.969 156.055C115.599 155.625 116.319 155.41 117.129 155.41C117.939 155.41 118.659 155.625 119.289 156.055C119.919 156.475 120.414 157.085 120.774 157.885C121.144 158.675 121.329 159.63 121.329 160.75C121.329 161.87 121.144 162.83 120.774 163.63C120.414 164.42 119.919 165.03 119.289 165.46C118.659 165.88 117.939 166.09 117.129 166.09ZM117.129 165.1C117.749 165.1 118.289 164.935 118.749 164.605C119.209 164.265 119.569 163.775 119.829 163.135C120.089 162.485 120.219 161.69 120.219 160.75C120.219 159.81 120.089 159.02 119.829 158.38C119.569 157.73 119.209 157.24 118.749 156.91C118.289 156.57 117.749 156.4 117.129 156.4C116.529 156.4 115.994 156.57 115.524 156.91C115.054 157.24 114.689 157.73 114.429 158.38C114.169 159.02 114.039 159.81 114.039 160.75C114.039 161.69 114.169 162.485 114.429 163.135C114.689 163.775 115.054 164.265 115.524 164.605C115.994 164.935 116.529 165.1 117.129 165.1ZM122.681 166V165.235L127.046 160.96C127.446 160.57 127.746 160.23 127.946 159.94C128.146 159.64 128.281 159.36 128.351 159.1C128.421 158.84 128.456 158.595 128.456 158.365C128.456 157.755 128.246 157.275 127.826 156.925C127.416 156.575 126.806 156.4 125.996 156.4C125.376 156.4 124.826 156.495 124.346 156.685C123.876 156.875 123.471 157.17 123.131 157.57L122.366 156.91C122.776 156.43 123.301 156.06 123.941 155.8C124.581 155.54 125.296 155.41 126.086 155.41C126.796 155.41 127.411 155.525 127.931 155.755C128.451 155.975 128.851 156.3 129.131 156.73C129.421 157.16 129.566 157.665 129.566 158.245C129.566 158.585 129.516 158.92 129.416 159.25C129.326 159.58 129.156 159.93 128.906 160.3C128.666 160.66 128.311 161.07 127.841 161.53L123.836 165.46L123.536 165.04H130.046V166H122.681ZM133.231 166V155.95L133.711 156.46H130.756V155.5H134.311V166H133.231Z" fill="#E74646"/>
</g>
<path d="M4 250.586C4 223.2 25.9095 201 52.9362 201H323.064C350.091 201 372 223.2 372 250.586V750.414C372 777.8 350.091 800 323.064 800H52.9362C25.9095 800 4 777.8 4 750.414V250.586Z" fill="#D9D9D9"/>
<path d="M4 250.586C4 223.2 25.9095 201 52.9362 201H323.064C350.091 201 372 223.2 372 250.586V750.414C372 777.8 350.091 800 323.064 800H52.9362C25.9095 800 4 777.8 4 750.414V250.586Z" fill="#E74646" fill-opacity="0.68"/>
<rect x="256" y="53" width="96" height="96" rx="26" fill="#D9D9D9"/>
<g filter="url(#filter2_d_193_35)">
<mask id="mask0_193_35" style="mask-type:alpha" maskUnits="userSpaceOnUse" x="256" y="53" width="96" height="96">
<rect x="256" y="53" width="96" height="96" rx="26" fill="#FFF3E2"/>
</mask>
<g mask="url(#mask0_193_35)">
<g filter="url(#filter3_i_193_35)">
<circle cx="303.5" cy="80.5" r="20.5" fill="#FFF3E2"/>
</g>
<g filter="url(#filter4_i_193_35)">
<circle cx="304" cy="143" r="38" fill="#FFF3E2"/>
</g>
</g>
</g>
<g filter="url(#filter5_d_193_35)">
<rect x="33" y="243" width="301" height="136" rx="37" fill="#D9D9D9"/>
</g>
<g filter="url(#filter6_d_193_35)">
<path d="M62.2435 322.083V296.883H73.1515C75.4075 296.883 77.3515 297.255 78.9835 297.999C80.6155 298.719 81.8755 299.763 82.7635 301.131C83.6515 302.499 84.0955 304.131 84.0955 306.027C84.0955 307.899 83.6515 309.519 82.7635 310.887C81.8755 312.255 80.6155 313.311 78.9835 314.055C77.3515 314.775 75.4075 315.135 73.1515 315.135H65.4835L68.0755 312.507V322.083H62.2435ZM68.0755 313.155L65.4835 310.383H72.8275C74.6275 310.383 75.9715 309.999 76.8595 309.231C77.7475 308.463 78.1915 307.395 78.1915 306.027C78.1915 304.635 77.7475 303.555 76.8595 302.787C75.9715 302.019 74.6275 301.635 72.8275 301.635H65.4835L68.0755 298.863V313.155ZM88.2147 322.083V302.715H93.8307V322.083H88.2147ZM91.0227 300.015C89.9907 300.015 89.1507 299.715 88.5027 299.115C87.8547 298.515 87.5307 297.771 87.5307 296.883C87.5307 295.995 87.8547 295.251 88.5027 294.651C89.1507 294.051 89.9907 293.751 91.0227 293.751C92.0547 293.751 92.8947 294.039 93.5427 294.615C94.1907 295.167 94.5147 295.887 94.5147 296.775C94.5147 297.711 94.1907 298.491 93.5427 299.115C92.9187 299.715 92.0787 300.015 91.0227 300.015ZM99.0428 322.083V295.371H104.659V322.083H99.0428ZM114.515 318.123L114.659 311.283L123.695 302.715H130.391L121.715 311.535L118.799 313.911L114.515 318.123ZM109.871 322.083V295.371H115.487V322.083H109.871ZM124.307 322.083L117.755 313.947L121.283 309.591L131.111 322.083H124.307ZM145.165 322.083V318.303L144.805 317.475V310.707C144.805 309.507 144.433 308.571 143.689 307.899C142.969 307.227 141.853 306.891 140.341 306.891C139.309 306.891 138.289 307.059 137.281 307.395C136.297 307.707 135.457 308.139 134.761 308.691L132.745 304.767C133.801 304.023 135.073 303.447 136.561 303.039C138.049 302.631 139.561 302.427 141.097 302.427C144.049 302.427 146.341 303.123 147.973 304.515C149.605 305.907 150.421 308.079 150.421 311.031V322.083H145.165ZM139.261 322.371C137.749 322.371 136.453 322.119 135.373 321.615C134.293 321.087 133.465 320.379 132.889 319.491C132.313 318.603 132.025 317.607 132.025 316.503C132.025 315.351 132.301 314.343 132.853 313.479C133.429 312.615 134.329 311.943 135.553 311.463C136.777 310.959 138.373 310.707 140.341 310.707H145.489V313.983H140.953C139.633 313.983 138.721 314.199 138.217 314.631C137.737 315.063 137.497 315.603 137.497 316.251C137.497 316.971 137.773 317.547 138.325 317.979C138.901 318.387 139.681 318.591 140.665 318.591C141.601 318.591 142.441 318.375 143.185 317.943C143.929 317.487 144.469 316.827 144.805 315.963L145.669 318.555C145.261 319.803 144.517 320.751 143.437 321.399C142.357 322.047 140.965 322.371 139.261 322.371ZM163.96 322.371C162.136 322.371 160.492 321.963 159.028 321.147C157.564 320.307 156.4 319.143 155.536 317.655C154.696 316.167 154.276 314.415 154.276 312.399C154.276 310.359 154.696 308.595 155.536 307.107C156.4 305.619 157.564 304.467 159.028 303.651C160.492 302.835 162.136 302.427 163.96 302.427C165.592 302.427 167.02 302.787 168.244 303.507C169.468 304.227 170.416 305.319 171.088 306.783C171.76 308.247 172.096 310.119 172.096 312.399C172.096 314.655 171.772 316.527 171.124 318.015C170.476 319.479 169.54 320.571 168.316 321.291C167.116 322.011 165.664 322.371 163.96 322.371ZM164.932 317.763C165.844 317.763 166.672 317.547 167.416 317.115C168.16 316.683 168.748 316.071 169.18 315.279C169.636 314.463 169.864 313.503 169.864 312.399C169.864 311.271 169.636 310.311 169.18 309.519C168.748 308.727 168.16 308.115 167.416 307.683C166.672 307.251 165.844 307.035 164.932 307.035C163.996 307.035 163.156 307.251 162.412 307.683C161.668 308.115 161.068 308.727 160.612 309.519C160.18 310.311 159.964 311.271 159.964 312.399C159.964 313.503 160.18 314.463 160.612 315.279C161.068 316.071 161.668 316.683 162.412 317.115C163.156 317.547 163.996 317.763 164.932 317.763ZM170.008 322.083V318.123L170.116 312.363L169.756 306.639V295.371H175.372V322.083H170.008ZM192.45 322.083V318.303L192.09 317.475V310.707C192.09 309.507 191.718 308.571 190.974 307.899C190.254 307.227 189.138 306.891 187.626 306.891C186.594 306.891 185.574 307.059 184.566 307.395C183.582 307.707 182.742 308.139 182.046 308.691L180.03 304.767C181.086 304.023 182.358 303.447 183.846 303.039C185.334 302.631 186.846 302.427 188.382 302.427C191.334 302.427 193.626 303.123 195.258 304.515C196.89 305.907 197.706 308.079 197.706 311.031V322.083H192.45ZM186.546 322.371C185.034 322.371 183.738 322.119 182.658 321.615C181.578 321.087 180.75 320.379 180.174 319.491C179.598 318.603 179.31 317.607 179.31 316.503C179.31 315.351 179.586 314.343 180.138 313.479C180.714 312.615 181.614 311.943 182.838 311.463C184.062 310.959 185.658 310.707 187.626 310.707H192.774V313.983H188.238C186.918 313.983 186.006 314.199 185.502 314.631C185.022 315.063 184.782 315.603 184.782 316.251C184.782 316.971 185.058 317.547 185.61 317.979C186.186 318.387 186.966 318.591 187.95 318.591C188.886 318.591 189.726 318.375 190.47 317.943C191.214 317.487 191.754 316.827 192.09 315.963L192.954 318.555C192.546 319.803 191.802 320.751 190.722 321.399C189.642 322.047 188.25 322.371 186.546 322.371Z" fill="#E74646"/>
</g>
<g filter="url(#filter7_d_193_35)">
<rect x="33" y="421" width="301" height="136" rx="37" fill="#D9D9D9"/>
</g>
<g filter="url(#filter8_d_193_35)">
<path d="M62.2435 500.083V474.883H73.1515C75.4075 474.883 77.3515 475.255 78.9835 475.999C80.6155 476.719 81.8755 477.763 82.7635 479.131C83.6515 480.499 84.0955 482.131 84.0955 484.027C84.0955 485.899 83.6515 487.519 82.7635 488.887C81.8755 490.255 80.6155 491.311 78.9835 492.055C77.3515 492.775 75.4075 493.135 73.1515 493.135H65.4835L68.0755 490.507V500.083H62.2435ZM68.0755 491.155L65.4835 488.383H72.8275C74.6275 488.383 75.9715 487.999 76.8595 487.231C77.7475 486.463 78.1915 485.395 78.1915 484.027C78.1915 482.635 77.7475 481.555 76.8595 480.787C75.9715 480.019 74.6275 479.635 72.8275 479.635H65.4835L68.0755 476.863V491.155ZM88.2147 500.083V480.715H93.8307V500.083H88.2147ZM91.0227 478.015C89.9907 478.015 89.1507 477.715 88.5027 477.115C87.8547 476.515 87.5307 475.771 87.5307 474.883C87.5307 473.995 87.8547 473.251 88.5027 472.651C89.1507 472.051 89.9907 471.751 91.0227 471.751C92.0547 471.751 92.8947 472.039 93.5427 472.615C94.1907 473.167 94.5147 473.887 94.5147 474.775C94.5147 475.711 94.1907 476.491 93.5427 477.115C92.9187 477.715 92.0787 478.015 91.0227 478.015ZM99.0428 500.083V473.371H104.659V500.083H99.0428ZM121.319 500.371C119.687 500.371 118.259 500.011 117.035 499.291C115.811 498.571 114.851 497.479 114.155 496.015C113.483 494.527 113.147 492.655 113.147 490.399C113.147 488.119 113.471 486.247 114.119 484.783C114.767 483.319 115.703 482.227 116.927 481.507C118.151 480.787 119.615 480.427 121.319 480.427C123.143 480.427 124.775 480.847 126.215 481.687C127.679 482.503 128.831 483.655 129.671 485.143C130.535 486.631 130.967 488.383 130.967 490.399C130.967 492.439 130.535 494.203 129.671 495.691C128.831 497.179 127.679 498.331 126.215 499.147C124.775 499.963 123.143 500.371 121.319 500.371ZM109.871 507.067V480.715H115.235V484.675L115.127 490.435L115.487 496.159V507.067H109.871ZM120.347 495.763C121.283 495.763 122.111 495.547 122.831 495.115C123.575 494.683 124.163 494.071 124.595 493.279C125.051 492.463 125.279 491.503 125.279 490.399C125.279 489.271 125.051 488.311 124.595 487.519C124.163 486.727 123.575 486.115 122.831 485.683C122.111 485.251 121.283 485.035 120.347 485.035C119.411 485.035 118.571 485.251 117.827 485.683C117.083 486.115 116.495 486.727 116.063 487.519C115.631 488.311 115.415 489.271 115.415 490.399C115.415 491.503 115.631 492.463 116.063 493.279C116.495 494.071 117.083 494.683 117.827 495.115C118.571 495.547 119.411 495.763 120.347 495.763ZM134.726 500.083V480.715H140.09V486.187L139.334 484.603C139.91 483.235 140.834 482.203 142.106 481.507C143.378 480.787 144.926 480.427 146.75 480.427V485.611C146.51 485.587 146.294 485.575 146.102 485.575C145.91 485.551 145.706 485.539 145.49 485.539C143.954 485.539 142.706 485.983 141.746 486.871C140.81 487.735 140.342 489.091 140.342 490.939V500.083H134.726ZM159.561 500.371C157.353 500.371 155.409 499.939 153.729 499.075C152.073 498.211 150.789 497.035 149.877 495.547C148.965 494.035 148.509 492.319 148.509 490.399C148.509 488.455 148.953 486.739 149.841 485.251C150.753 483.739 151.989 482.563 153.549 481.723C155.109 480.859 156.873 480.427 158.841 480.427C160.737 480.427 162.441 480.835 163.953 481.651C165.489 482.443 166.701 483.595 167.589 485.107C168.477 486.595 168.921 488.383 168.921 490.471C168.921 490.687 168.909 490.939 168.885 491.227C168.861 491.491 168.837 491.743 168.813 491.983H153.081V488.707H165.861L163.701 489.679C163.701 488.671 163.497 487.795 163.089 487.051C162.681 486.307 162.117 485.731 161.397 485.323C160.677 484.891 159.837 484.675 158.877 484.675C157.917 484.675 157.065 484.891 156.321 485.323C155.601 485.731 155.037 486.319 154.629 487.087C154.221 487.831 154.017 488.719 154.017 489.751V490.615C154.017 491.671 154.245 492.607 154.701 493.423C155.181 494.215 155.841 494.827 156.681 495.259C157.545 495.667 158.553 495.871 159.705 495.871C160.737 495.871 161.637 495.715 162.405 495.403C163.197 495.091 163.917 494.623 164.565 493.999L167.553 497.239C166.665 498.247 165.549 499.027 164.205 499.579C162.861 500.107 161.313 500.371 159.561 500.371ZM179.176 500.371C177.52 500.371 175.924 500.179 174.388 499.795C172.876 499.387 171.676 498.883 170.788 498.283L172.66 494.251C173.548 494.803 174.592 495.259 175.792 495.619C177.016 495.955 178.216 496.123 179.392 496.123C180.688 496.123 181.6 495.967 182.128 495.655C182.68 495.343 182.956 494.911 182.956 494.359C182.956 493.903 182.74 493.567 182.308 493.351C181.9 493.111 181.348 492.931 180.652 492.811C179.956 492.691 179.188 492.571 178.348 492.451C177.532 492.331 176.704 492.175 175.864 491.983C175.024 491.767 174.256 491.455 173.56 491.047C172.864 490.639 172.3 490.087 171.868 489.391C171.46 488.695 171.256 487.795 171.256 486.691C171.256 485.467 171.604 484.387 172.3 483.451C173.02 482.515 174.052 481.783 175.396 481.255C176.74 480.703 178.348 480.427 180.22 480.427C181.54 480.427 182.884 480.571 184.252 480.859C185.62 481.147 186.76 481.567 187.672 482.119L185.8 486.115C184.864 485.563 183.916 485.191 182.956 484.999C182.02 484.783 181.108 484.675 180.22 484.675C178.972 484.675 178.06 484.843 177.484 485.179C176.908 485.515 176.62 485.947 176.62 486.475C176.62 486.955 176.824 487.315 177.232 487.555C177.664 487.795 178.228 487.987 178.924 488.131C179.62 488.275 180.376 488.407 181.192 488.527C182.032 488.623 182.872 488.779 183.712 488.995C184.552 489.211 185.308 489.523 185.98 489.931C186.676 490.315 187.24 490.855 187.672 491.551C188.104 492.223 188.32 493.111 188.32 494.215C188.32 495.415 187.96 496.483 187.24 497.419C186.52 498.331 185.476 499.051 184.108 499.579C182.764 500.107 181.12 500.371 179.176 500.371Z" fill="#E74646"/>
</g>
<g filter="url(#filter9_d_193_35)">
<rect x="33" y="599" width="301" height="136" rx="37" fill="#D9D9D9"/>
</g>
<g filter="url(#filter10_d_193_35)">
<path d="M62.2435 678.083V652.883H73.1515C75.4075 652.883 77.3515 653.255 78.9835 653.999C80.6155 654.719 81.8755 655.763 82.7635 657.131C83.6515 658.499 84.0955 660.131 84.0955 662.027C84.0955 663.899 83.6515 665.519 82.7635 666.887C81.8755 668.255 80.6155 669.311 78.9835 670.055C77.3515 670.775 75.4075 671.135 73.1515 671.135H65.4835L68.0755 668.507V678.083H62.2435ZM68.0755 669.155L65.4835 666.383H72.8275C74.6275 666.383 75.9715 665.999 76.8595 665.231C77.7475 664.463 78.1915 663.395 78.1915 662.027C78.1915 660.635 77.7475 659.555 76.8595 658.787C75.9715 658.019 74.6275 657.635 72.8275 657.635H65.4835L68.0755 654.863V669.155ZM97.44 678.371C95.232 678.371 93.288 677.939 91.608 677.075C89.952 676.211 88.668 675.035 87.756 673.547C86.844 672.035 86.388 670.319 86.388 668.399C86.388 666.455 86.832 664.739 87.72 663.251C88.632 661.739 89.868 660.563 91.428 659.723C92.988 658.859 94.752 658.427 96.72 658.427C98.616 658.427 100.32 658.835 101.832 659.651C103.368 660.443 104.58 661.595 105.468 663.107C106.356 664.595 106.8 666.383 106.8 668.471C106.8 668.687 106.788 668.939 106.764 669.227C106.74 669.491 106.716 669.743 106.692 669.983H90.96V666.707H103.74L101.58 667.679C101.58 666.671 101.376 665.795 100.968 665.051C100.56 664.307 99.996 663.731 99.276 663.323C98.556 662.891 97.716 662.675 96.756 662.675C95.796 662.675 94.944 662.891 94.2 663.323C93.48 663.731 92.916 664.319 92.508 665.087C92.1 665.831 91.896 666.719 91.896 667.751V668.615C91.896 669.671 92.124 670.607 92.58 671.423C93.06 672.215 93.72 672.827 94.56 673.259C95.424 673.667 96.432 673.871 97.584 673.871C98.616 673.871 99.516 673.715 100.284 673.403C101.076 673.091 101.796 672.623 102.444 671.999L105.432 675.239C104.544 676.247 103.428 677.027 102.084 677.579C100.74 678.107 99.192 678.371 97.44 678.371ZM135.343 658.427C136.879 658.427 138.235 658.739 139.411 659.363C140.611 659.963 141.547 660.899 142.219 662.171C142.915 663.419 143.263 665.027 143.263 666.995V678.083H137.647V667.859C137.647 666.299 137.323 665.147 136.675 664.403C136.027 663.659 135.115 663.287 133.939 663.287C133.123 663.287 132.391 663.479 131.743 663.863C131.095 664.223 130.591 664.775 130.231 665.519C129.871 666.263 129.691 667.211 129.691 668.363V678.083H124.075V667.859C124.075 666.299 123.751 665.147 123.103 664.403C122.479 663.659 121.579 663.287 120.403 663.287C119.587 663.287 118.855 663.479 118.207 663.863C117.559 664.223 117.055 664.775 116.695 665.519C116.335 666.263 116.155 667.211 116.155 668.363V678.083H110.539V658.715H115.903V664.007L114.895 662.459C115.567 661.139 116.515 660.143 117.739 659.471C118.987 658.775 120.403 658.427 121.987 658.427C123.763 658.427 125.311 658.883 126.631 659.795C127.975 660.683 128.863 662.051 129.295 663.899L127.315 663.359C127.963 661.847 128.995 660.647 130.411 659.759C131.851 658.871 133.495 658.427 135.343 658.427ZM148.297 678.083V658.715H153.913V678.083H148.297ZM151.105 656.015C150.073 656.015 149.233 655.715 148.585 655.115C147.937 654.515 147.613 653.771 147.613 652.883C147.613 651.995 147.937 651.251 148.585 650.651C149.233 650.051 150.073 649.751 151.105 649.751C152.137 649.751 152.977 650.039 153.625 650.615C154.273 651.167 154.597 651.887 154.597 652.775C154.597 653.711 154.273 654.491 153.625 655.115C153.001 655.715 152.161 656.015 151.105 656.015ZM159.125 678.083V651.371H164.741V678.083H159.125ZM178.125 678.371C176.517 678.371 175.077 678.059 173.805 677.435C172.557 676.811 171.585 675.863 170.889 674.591C170.193 673.295 169.845 671.651 169.845 669.659V658.715H175.461V668.831C175.461 670.439 175.797 671.627 176.469 672.395C177.165 673.139 178.137 673.511 179.385 673.511C180.249 673.511 181.017 673.331 181.689 672.971C182.361 672.587 182.889 672.011 183.273 671.243C183.657 670.451 183.849 669.467 183.849 668.291V658.715H189.465V678.083H184.137V672.755L185.109 674.303C184.461 675.647 183.501 676.667 182.229 677.363C180.981 678.035 179.613 678.371 178.125 678.371Z" fill="#E74646"/>
</g>
<rect x="331.786" y="-87" width="247" height="313" transform="rotate(42.0857 331.786 -87)" fill="#FFE5CA"/>
<rect x="-113.467" y="44.9731" width="247" height="356.269" transform="rotate(-29.7436 -113.467 44.9731)" fill="#FFF3E2"/>
<path d="M-4 249.586C-4 222.2 17.9095 200 44.9362 200H315.064C342.091 200 364 222.2 364 249.586V749.414C364 776.8 342.091 799 315.064 799H44.9362C17.9095 799 -4 776.8 -4 749.414V249.586Z" fill="#D9D9D9"/>
<path d="M-4 249.586C-4 222.2 17.9095 200 44.9362 200H315.064C342.091 200 364 222.2 364 249.586V749.414C364 776.8 342.091 799 315.064 799H44.9362C17.9095 799 -4 776.8 -4 749.414V249.586Z" fill="#E74646" fill-opacity="0.68"/>
</g>
<defs>
<filter id="filter0_d_193_35" x="0" y="0" width="368" height="808" filterUnits="userSpaceOnUse" color-interpolation-filters="sRGB">
<feFlood flood-opacity="0" result="BackgroundImageFix"/>
<feColorMatrix in="SourceAlpha" type="matrix" values="0 0 0 0 0 0 0 0 0 0 0 0 0 0 0 0 0 0 127 0" result="hardAlpha"/>
<feOffset dy="4"/>
<feGaussianBlur stdDeviation="2"/>
<feComposite in2="hardAlpha" operator="out"/>
<feColorMatrix type="matrix" values="0 0 0 0 0 0 0 0 0 0 0 0 0 0 0 0 0 0 0.25 0"/>
<feBlend mode="normal" in2="BackgroundImageFix" result="effect1_dropShadow_193_35"/>
<feBlend mode="normal" in="SourceGraphic" in2="effect1_dropShadow_193_35" result="shape"/>
</filter>
<filter id="filter1_d_193_35" x="15.78" y="155.41" width="122.531" height="18.68" filterUnits="userSpaceOnUse" color-interpolation-filters="sRGB">
<feFlood flood-opacity="0" result="BackgroundImageFix"/>
<feColorMatrix in="SourceAlpha" type="matrix" values="0 0 0 0 0 0 0 0 0 0 0 0 0 0 0 0 0 0 127 0" result="hardAlpha"/>
<feOffset dy="4"/>
<feGaussianBlur stdDeviation="2"/>
<feComposite in2="hardAlpha" operator="out"/>
<feColorMatrix type="matrix" values="0 0 0 0 0 0 0 0 0 0 0 0 0 0 0 0 0 0 0.25 0"/>
<feBlend mode="normal" in2="BackgroundImageFix" result="effect1_dropShadow_193_35"/>
<feBlend mode="normal" in="SourceGraphic" in2="effect1_dropShadow_193_35" result="shape"/>
</filter>
<filter id="filter2_d_193_35" x="262" y="60" width="84" height="97" filterUnits="userSpaceOnUse" color-interpolation-filters="sRGB">
<feFlood flood-opacity="0" result="BackgroundImageFix"/>
<feColorMatrix in="SourceAlpha" type="matrix" values="0 0 0 0 0 0 0 0 0 0 0 0 0 0 0 0 0 0 127 0" result="hardAlpha"/>
<feOffset dy="4"/>
<feGaussianBlur stdDeviation="2"/>
<feComposite in2="hardAlpha" operator="out"/>
<feColorMatrix type="matrix" values="0 0 0 0 0 0 0 0 0 0 0 0 0 0 0 0 0 0 0.25 0"/>
<feBlend mode="normal" in2="BackgroundImageFix" result="effect1_dropShadow_193_35"/>
<feBlend mode="normal" in="SourceGraphic" in2="effect1_dropShadow_193_35" result="shape"/>
</filter>
<filter id="filter3_i_193_35" x="283" y="60" width="41" height="43" filterUnits="userSpaceOnUse" color-interpolation-filters="sRGB">
<feFlood flood-opacity="0" result="BackgroundImageFix"/>
<feBlend mode="normal" in="SourceGraphic" in2="BackgroundImageFix" result="shape"/>
<feColorMatrix in="SourceAlpha" type="matrix" values="0 0 0 0 0 0 0 0 0 0 0 0 0 0 0 0 0 0 127 0" result="hardAlpha"/>
<feMorphology radius="4" operator="erode" in="SourceAlpha" result="effect1_innerShadow_193_35"/>
<feOffset dy="2"/>
<feGaussianBlur stdDeviation="3.5"/>
<feComposite in2="hardAlpha" operator="arithmetic" k2="-1" k3="1"/>
<feColorMatrix type="matrix" values="0 0 0 0 0 0 0 0 0 0 0 0 0 0 0 0 0 0 0.25 0"/>
<feBlend mode="normal" in2="shape" result="effect1_innerShadow_193_35"/>
</filter>
<filter id="filter4_i_193_35" x="266" y="105" width="76" height="78" filterUnits="userSpaceOnUse" color-interpolation-filters="sRGB">
<feFlood flood-opacity="0" result="BackgroundImageFix"/>
<feBlend mode="normal" in="SourceGraphic" in2="BackgroundImageFix" result="shape"/>
<feColorMatrix in="SourceAlpha" type="matrix" values="0 0 0 0 0 0 0 0 0 0 0 0 0 0 0 0 0 0 127 0" result="hardAlpha"/>
<feMorphology radius="4" operator="erode" in="SourceAlpha" result="effect1_innerShadow_193_35"/>
<feOffset dy="2"/>
<feGaussianBlur stdDeviation="3.5"/>
<feComposite in2="hardAlpha" operator="arithmetic" k2="-1" k3="1"/>
<feColorMatrix type="matrix" values="0 0 0 0 0 0 0 0 0 0 0 0 0 0 0 0 0 0 0.25 0"/>
<feBlend mode="normal" in2="shape" result="effect1_innerShadow_193_35"/>
</filter>
<filter id="filter5_d_193_35" x="33" y="243" width="318" height="153" filterUnits="userSpaceOnUse" color-interpolation-filters="sRGB">
<feFlood flood-opacity="0" result="BackgroundImageFix"/>
<feColorMatrix in="SourceAlpha" type="matrix" values="0 0 0 0 0 0 0 0 0 0 0 0 0 0 0 0 0 0 127 0" result="hardAlpha"/>
<feOffset dx="10" dy="10"/>
<feGaussianBlur stdDeviation="3.5"/>
<feComposite in2="hardAlpha" operator="out"/>
<feColorMatrix type="matrix" values="0 0 0 0 0 0 0 0 0 0 0 0 0 0 0 0 0 0 0.25 0"/>
<feBlend mode="normal" in2="BackgroundImageFix" result="effect1_dropShadow_193_35"/>
<feBlend mode="normal" in="SourceGraphic" in2="effect1_dropShadow_193_35" result="shape"/>
</filter>
<filter id="filter6_d_193_35" x="58.2435" y="293.751" width="143.463" height="36.62" filterUnits="userSpaceOnUse" color-interpolation-filters="sRGB">
<feFlood flood-opacity="0" result="BackgroundImageFix"/>
<feColorMatrix in="SourceAlpha" type="matrix" values="0 0 0 0 0 0 0 0 0 0 0 0 0 0 0 0 0 0 127 0" result="hardAlpha"/>
<feOffset dy="4"/>
<feGaussianBlur stdDeviation="2"/>
<feComposite in2="hardAlpha" operator="out"/>
<feColorMatrix type="matrix" values="0 0 0 0 0 0 0 0 0 0 0 0 0 0 0 0 0 0 0.25 0"/>
<feBlend mode="normal" in2="BackgroundImageFix" result="effect1_dropShadow_193_35"/>
<feBlend mode="normal" in="SourceGraphic" in2="effect1_dropShadow_193_35" result="shape"/>
</filter>
<filter id="filter7_d_193_35" x="33" y="421" width="318" height="153" filterUnits="userSpaceOnUse" color-interpolation-filters="sRGB">
<feFlood flood-opacity="0" result="BackgroundImageFix"/>
<feColorMatrix in="SourceAlpha" type="matrix" values="0 0 0 0 0 0 0 0 0 0 0 0 0 0 0 0 0 0 127 0" result="hardAlpha"/>
<feOffset dx="10" dy="10"/>
<feGaussianBlur stdDeviation="3.5"/>
<feComposite in2="hardAlpha" operator="out"/>
<feColorMatrix type="matrix" values="0 0 0 0 0 0 0 0 0 0 0 0 0 0 0 0 0 0 0.25 0"/>
<feBlend mode="normal" in2="BackgroundImageFix" result="effect1_dropShadow_193_35"/>
<feBlend mode="normal" in="SourceGraphic" in2="effect1_dropShadow_193_35" result="shape"/>
</filter>
<filter id="filter8_d_193_35" x="58.2435" y="471.751" width="134.076" height="43.316" filterUnits="userSpaceOnUse" color-interpolation-filters="sRGB">
<feFlood flood-opacity="0" result="BackgroundImageFix"/>
<feColorMatrix in="SourceAlpha" type="matrix" values="0 0 0 0 0 0 0 0 0 0 0 0 0 0 0 0 0 0 127 0" result="hardAlpha"/>
<feOffset dy="4"/>
<feGaussianBlur stdDeviation="2"/>
<feComposite in2="hardAlpha" operator="out"/>
<feColorMatrix type="matrix" values="0 0 0 0 0 0 0 0 0 0 0 0 0 0 0 0 0 0 0.25 0"/>
<feBlend mode="normal" in2="BackgroundImageFix" result="effect1_dropShadow_193_35"/>
<feBlend mode="normal" in="SourceGraphic" in2="effect1_dropShadow_193_35" result="shape"/>
</filter>
<filter id="filter9_d_193_35" x="33" y="599" width="318" height="153" filterUnits="userSpaceOnUse" color-interpolation-filters="sRGB">
<feFlood flood-opacity="0" result="BackgroundImageFix"/>
<feColorMatrix in="SourceAlpha" type="matrix" values="0 0 0 0 0 0 0 0 0 0 0 0 0 0 0 0 0 0 127 0" result="hardAlpha"/>
<feOffset dx="10" dy="10"/>
<feGaussianBlur stdDeviation="3.5"/>
<feComposite in2="hardAlpha" operator="out"/>
<feColorMatrix type="matrix" values="0 0 0 0 0 0 0 0 0 0 0 0 0 0 0 0 0 0 0.25 0"/>
<feBlend mode="normal" in2="BackgroundImageFix" result="effect1_dropShadow_193_35"/>
<feBlend mode="normal" in="SourceGraphic" in2="effect1_dropShadow_193_35" result="shape"/>
</filter>
<filter id="filter10_d_193_35" x="58.2435" y="649.751" width="135.221" height="36.62" filterUnits="userSpaceOnUse" color-interpolation-filters="sRGB">
<feFlood flood-opacity="0" result="BackgroundImageFix"/>
<feColorMatrix in="SourceAlpha" type="matrix" values="0 0 0 0 0 0 0 0 0 0 0 0 0 0 0 0 0 0 127 0" result="hardAlpha"/>
<feOffset dy="4"/>
<feGaussianBlur stdDeviation="2"/>
<feComposite in2="hardAlpha" operator="out"/>
<feColorMatrix type="matrix" values="0 0 0 0 0 0 0 0 0 0 0 0 0 0 0 0 0 0 0.25 0"/>
<feBlend mode="normal" in2="BackgroundImageFix" result="effect1_dropShadow_193_35"/>
<feBlend mode="normal" in="SourceGraphic" in2="effect1_dropShadow_193_35" result="shape"/>
</filter>
<clipPath id="clip0_193_35">
<rect width="360" height="800" fill="white" transform="translate(4)"/>
</clipPath>
</defs>
</svg>
